<svg xmlns="http://www.w3.org/2000/svg" viewBox="0 0 1024 1024">
<path d="M 676,719 L 675,720 L 674,720 L 673,721 L 673,889 L 674,890 L 675,890 L 676,891 L 735,891 L 736,890 L 744,890 L 745,889 L 751,889 L 752,888 L 755,888 L 756,887 L 759,887 L 760,886 L 762,886 L 763,885 L 766,885 L 767,884 L 768,884 L 769,883 L 771,883 L 772,882 L 773,882 L 774,881 L 775,881 L 776,880 L 777,880 L 778,879 L 779,879 L 780,878 L 781,878 L 783,876 L 784,876 L 786,874 L 787,874 L 790,871 L 791,871 L 796,866 L 796,865 L 799,862 L 799,861 L 801,859 L 801,858 L 803,856 L 803,855 L 804,854 L 804,853 L 805,852 L 805,851 L 806,850 L 806,849 L 807,848 L 807,847 L 808,846 L 808,844 L 809,843 L 809,842 L 810,841 L 810,839 L 811,838 L 811,835 L 812,834 L 812,831 L 813,830 L 813,825 L 814,824 L 814,817 L 815,816 L 815,793 L 814,792 L 814,785 L 813,784 L 813,779 L 812,778 L 812,775 L 811,774 L 811,772 L 810,771 L 810,769 L 809,768 L 809,766 L 808,765 L 808,764 L 807,763 L 807,761 L 806,760 L 806,759 L 805,758 L 805,757 L 804,756 L 804,755 L 803,754 L 803,753 L 801,751 L 801,750 L 799,748 L 799,747 L 788,736 L 787,736 L 784,733 L 783,733 L 782,732 L 781,732 L 779,730 L 778,730 L 777,729 L 776,729 L 775,728 L 774,728 L 773,727 L 772,727 L 771,726 L 769,726 L 768,725 L 766,725 L 765,724 L 763,724 L 762,723 L 760,723 L 759,722 L 756,722 L 755,721 L 751,721 L 750,720 L 741,720 L 740,719 Z" fill="white"/>
<path d="M 528,719 L 527,720 L 527,721 L 526,722 L 526,887 L 528,889 L 559,889 L 560,890 L 561,890 L 561,834 L 562,833 L 596,833 L 597,832 L 604,832 L 605,831 L 608,831 L 609,830 L 610,830 L 611,829 L 613,829 L 614,828 L 615,828 L 616,827 L 617,827 L 619,825 L 620,825 L 621,824 L 622,824 L 624,822 L 625,822 L 628,819 L 629,819 L 637,811 L 637,810 L 640,807 L 640,806 L 642,804 L 642,803 L 643,802 L 643,801 L 644,800 L 644,799 L 645,798 L 645,796 L 646,795 L 646,794 L 647,793 L 647,790 L 648,789 L 648,785 L 649,784 L 649,765 L 648,764 L 648,760 L 647,759 L 647,757 L 646,756 L 646,754 L 645,753 L 645,751 L 644,750 L 644,749 L 643,748 L 643,747 L 642,746 L 642,745 L 640,743 L 640,742 L 638,740 L 638,739 L 630,731 L 629,731 L 626,728 L 625,728 L 624,727 L 623,727 L 622,726 L 621,726 L 620,725 L 619,725 L 618,724 L 617,724 L 616,723 L 614,723 L 613,722 L 610,722 L 609,721 L 606,721 L 605,720 L 598,720 L 597,719 Z" fill="white"/>
<path d="M 374,719 L 373,720 L 373,747 L 374,748 L 374,749 L 375,749 L 376,750 L 407,750 L 408,749 L 417,749 L 418,750 L 419,750 L 420,751 L 420,828 L 421,829 L 421,834 L 420,835 L 420,886 L 421,887 L 421,888 L 422,889 L 425,889 L 426,890 L 432,890 L 433,889 L 455,889 L 455,751 L 456,750 L 457,750 L 458,749 L 501,749 L 502,748 L 502,745 L 501,744 L 501,719 Z" fill="white"/>
<path d="M 211,719 L 211,720 L 212,721 L 212,722 L 213,723 L 213,725 L 214,726 L 214,727 L 215,728 L 215,729 L 217,731 L 217,733 L 219,735 L 219,736 L 220,737 L 220,738 L 221,739 L 221,740 L 222,741 L 222,742 L 223,743 L 223,744 L 224,745 L 224,746 L 225,747 L 225,748 L 227,750 L 227,751 L 228,752 L 228,753 L 229,754 L 229,755 L 230,756 L 230,757 L 231,758 L 231,759 L 232,760 L 232,761 L 233,762 L 233,763 L 235,765 L 235,766 L 236,767 L 236,768 L 237,769 L 237,770 L 238,771 L 238,772 L 239,773 L 239,774 L 240,775 L 240,776 L 241,777 L 241,778 L 242,779 L 242,780 L 243,781 L 243,782 L 244,783 L 244,784 L 245,785 L 245,786 L 246,787 L 246,788 L 247,789 L 247,790 L 248,791 L 248,792 L 249,793 L 249,794 L 251,796 L 251,797 L 252,798 L 252,799 L 253,800 L 253,801 L 254,802 L 254,803 L 256,805 L 256,806 L 257,807 L 257,808 L 258,809 L 258,810 L 259,811 L 259,812 L 260,813 L 260,814 L 261,815 L 261,816 L 263,818 L 263,819 L 264,820 L 264,821 L 265,822 L 265,823 L 266,824 L 266,825 L 267,826 L 267,889 L 268,890 L 291,890 L 292,889 L 302,889 L 302,852 L 303,851 L 303,825 L 304,824 L 304,823 L 305,822 L 305,821 L 306,820 L 306,819 L 307,818 L 307,817 L 308,816 L 308,815 L 309,814 L 309,813 L 311,811 L 311,809 L 313,807 L 313,806 L 314,805 L 314,804 L 315,803 L 315,802 L 316,801 L 316,800 L 317,799 L 317,798 L 318,797 L 318,796 L 319,795 L 319,794 L 320,793 L 320,792 L 321,791 L 321,790 L 322,789 L 322,788 L 323,787 L 323,786 L 324,785 L 324,784 L 325,783 L 325,782 L 326,781 L 326,780 L 328,778 L 328,777 L 329,776 L 329,775 L 330,774 L 330,773 L 331,772 L 331,771 L 332,770 L 332,769 L 333,768 L 333,767 L 334,766 L 334,765 L 335,764 L 335,763 L 336,762 L 336,761 L 337,760 L 337,759 L 338,758 L 338,757 L 339,756 L 339,755 L 340,754 L 340,753 L 341,752 L 341,751 L 342,750 L 342,749 L 343,748 L 343,747 L 344,746 L 344,745 L 345,744 L 345,743 L 346,742 L 346,741 L 348,739 L 348,738 L 349,737 L 349,736 L 350,735 L 350,734 L 351,733 L 351,732 L 352,731 L 352,730 L 353,729 L 353,728 L 354,727 L 354,726 L 355,725 L 355,724 L 356,723 L 356,722 L 358,720 L 357,719 L 336,719 L 335,720 L 319,720 L 319,722 L 318,723 L 318,724 L 317,725 L 317,726 L 316,727 L 316,728 L 315,729 L 315,730 L 314,731 L 314,732 L 313,733 L 313,734 L 312,735 L 312,736 L 311,737 L 311,738 L 310,739 L 310,741 L 309,742 L 309,743 L 308,744 L 308,745 L 307,746 L 307,747 L 306,748 L 306,749 L 305,750 L 305,751 L 304,752 L 304,753 L 303,754 L 303,755 L 302,756 L 302,757 L 301,758 L 301,759 L 300,760 L 300,761 L 299,762 L 299,763 L 298,764 L 298,766 L 297,767 L 297,768 L 296,769 L 296,770 L 295,771 L 295,772 L 294,773 L 294,774 L 293,775 L 293,776 L 292,777 L 292,778 L 291,779 L 291,780 L 290,781 L 290,782 L 289,783 L 289,784 L 288,785 L 288,787 L 287,788 L 287,789 L 285,791 L 284,790 L 284,789 L 283,788 L 283,787 L 282,786 L 282,785 L 281,784 L 281,783 L 280,782 L 280,781 L 279,780 L 279,779 L 278,778 L 278,777 L 277,776 L 277,774 L 276,773 L 276,772 L 275,771 L 275,770 L 274,769 L 274,768 L 273,767 L 273,766 L 272,765 L 272,764 L 271,763 L 271,762 L 270,761 L 270,760 L 269,759 L 269,757 L 268,756 L 268,755 L 267,754 L 267,753 L 266,752 L 266,751 L 265,750 L 265,749 L 264,748 L 264,747 L 263,746 L 263,745 L 262,744 L 262,743 L 261,742 L 261,740 L 260,739 L 260,738 L 259,737 L 259,736 L 258,735 L 258,734 L 257,733 L 257,732 L 256,731 L 256,730 L 255,729 L 255,728 L 254,727 L 254,726 L 253,725 L 253,723 L 252,722 L 252,721 L 250,719 Z" fill="white"/>
<path d="M 632,427 L 631,428 L 630,428 L 627,431 L 627,432 L 626,433 L 626,511 L 625,512 L 588,512 L 587,513 L 586,513 L 585,514 L 584,514 L 581,517 L 581,519 L 580,520 L 581,521 L 581,524 L 582,525 L 582,526 L 587,531 L 587,532 L 592,537 L 592,538 L 598,544 L 598,545 L 603,550 L 603,551 L 608,556 L 608,557 L 614,563 L 614,564 L 619,569 L 619,570 L 625,576 L 625,577 L 630,582 L 630,583 L 636,589 L 636,590 L 642,596 L 642,597 L 647,602 L 647,603 L 655,611 L 657,611 L 658,612 L 661,612 L 662,611 L 664,611 L 674,601 L 674,600 L 681,593 L 681,592 L 689,584 L 689,583 L 696,576 L 696,575 L 703,568 L 703,567 L 710,560 L 710,559 L 717,552 L 717,551 L 724,544 L 724,543 L 731,536 L 731,535 L 738,528 L 738,527 L 739,526 L 739,525 L 740,524 L 740,518 L 739,517 L 739,516 L 737,514 L 736,514 L 735,513 L 733,513 L 732,512 L 692,512 L 691,511 L 691,433 L 690,432 L 690,431 L 687,428 L 685,428 L 684,427 Z" fill="white"/>
<path d="M 236,320 L 235,321 L 234,321 L 233,322 L 232,322 L 231,323 L 230,323 L 227,326 L 227,327 L 226,328 L 226,329 L 225,330 L 225,331 L 224,332 L 224,416 L 225,417 L 225,424 L 226,425 L 226,431 L 227,432 L 227,435 L 228,436 L 228,440 L 229,441 L 229,444 L 230,445 L 230,447 L 231,448 L 231,451 L 232,452 L 232,454 L 233,455 L 233,457 L 234,458 L 234,460 L 235,461 L 235,462 L 236,463 L 236,465 L 237,466 L 237,467 L 238,468 L 238,470 L 239,471 L 239,472 L 240,473 L 240,474 L 241,475 L 241,476 L 242,477 L 242,478 L 243,479 L 243,480 L 244,481 L 244,482 L 245,483 L 245,484 L 246,485 L 246,486 L 248,488 L 248,489 L 249,490 L 249,491 L 251,493 L 251,494 L 253,496 L 253,497 L 255,499 L 255,500 L 258,503 L 258,504 L 262,508 L 262,509 L 268,515 L 268,516 L 280,528 L 281,528 L 288,535 L 289,535 L 293,539 L 294,539 L 297,542 L 298,542 L 300,544 L 301,544 L 303,546 L 304,546 L 306,548 L 307,548 L 308,549 L 309,549 L 310,550 L 311,550 L 312,551 L 313,551 L 314,552 L 315,552 L 316,553 L 317,553 L 318,554 L 319,554 L 320,555 L 321,555 L 322,556 L 323,556 L 324,557 L 326,557 L 327,558 L 328,558 L 329,559 L 330,559 L 331,560 L 333,560 L 334,561 L 335,561 L 336,562 L 339,562 L 340,563 L 341,563 L 342,564 L 345,564 L 346,565 L 348,565 L 349,566 L 352,566 L 353,567 L 357,567 L 358,568 L 363,568 L 364,569 L 370,569 L 371,570 L 378,570 L 379,571 L 387,571 L 388,572 L 398,572 L 399,573 L 399,586 L 400,587 L 400,628 L 399,629 L 328,629 L 327,630 L 325,630 L 324,631 L 323,631 L 317,637 L 317,638 L 316,639 L 316,640 L 315,641 L 315,651 L 316,652 L 316,654 L 317,655 L 317,656 L 322,661 L 323,661 L 324,662 L 325,662 L 326,663 L 329,663 L 330,664 L 503,664 L 504,663 L 508,663 L 509,662 L 510,662 L 511,661 L 512,661 L 515,658 L 515,657 L 517,655 L 517,654 L 518,653 L 518,650 L 519,649 L 519,644 L 518,643 L 518,641 L 517,640 L 517,638 L 515,636 L 515,635 L 512,632 L 511,632 L 509,630 L 507,630 L 506,629 L 436,629 L 435,628 L 435,574 L 436,573 L 438,573 L 439,572 L 452,572 L 453,571 L 460,571 L 461,570 L 466,570 L 467,569 L 472,569 L 473,568 L 476,568 L 477,567 L 481,567 L 482,566 L 485,566 L 486,565 L 488,565 L 489,564 L 491,564 L 492,563 L 494,563 L 495,562 L 497,562 L 498,561 L 499,561 L 500,560 L 501,560 L 502,559 L 503,559 L 504,558 L 505,558 L 509,554 L 509,553 L 510,552 L 510,551 L 511,550 L 511,540 L 510,539 L 510,538 L 509,537 L 509,536 L 503,530 L 502,530 L 500,528 L 498,528 L 497,527 L 493,527 L 492,528 L 489,528 L 488,529 L 486,529 L 485,530 L 483,530 L 482,531 L 481,531 L 480,532 L 477,532 L 476,533 L 474,533 L 473,534 L 470,534 L 469,535 L 465,535 L 464,536 L 458,536 L 457,537 L 448,537 L 447,538 L 382,538 L 381,537 L 374,537 L 373,536 L 368,536 L 367,535 L 363,535 L 362,534 L 358,534 L 357,533 L 355,533 L 354,532 L 351,532 L 350,531 L 348,531 L 347,530 L 345,530 L 344,529 L 343,529 L 342,528 L 340,528 L 339,527 L 338,527 L 337,526 L 336,526 L 335,525 L 334,525 L 333,524 L 332,524 L 331,523 L 330,523 L 329,522 L 328,522 L 327,521 L 326,521 L 325,520 L 324,520 L 322,518 L 321,518 L 320,517 L 319,517 L 317,515 L 316,515 L 313,512 L 312,512 L 309,509 L 308,509 L 300,501 L 299,501 L 296,498 L 296,497 L 288,489 L 288,488 L 285,485 L 285,484 L 282,481 L 282,480 L 280,478 L 280,477 L 279,476 L 279,475 L 277,473 L 277,472 L 276,471 L 276,470 L 275,469 L 275,468 L 274,467 L 274,466 L 273,465 L 273,464 L 272,463 L 272,462 L 271,461 L 271,460 L 270,459 L 270,458 L 269,457 L 269,455 L 268,454 L 268,453 L 267,452 L 267,450 L 266,449 L 266,448 L 265,447 L 265,445 L 264,444 L 264,442 L 263,441 L 263,438 L 262,437 L 262,434 L 261,433 L 261,430 L 260,429 L 260,425 L 259,424 L 259,419 L 258,418 L 258,410 L 257,409 L 257,334 L 256,333 L 256,331 L 255,330 L 255,329 L 254,328 L 254,327 L 253,326 L 253,325 L 251,323 L 250,323 L 248,321 L 246,321 L 245,320 Z" fill="white"/>
<path d="M 605,238 L 604,239 L 601,239 L 600,240 L 599,240 L 598,241 L 597,241 L 591,247 L 591,248 L 590,249 L 590,250 L 589,251 L 589,253 L 588,254 L 588,394 L 589,395 L 589,397 L 590,398 L 590,399 L 596,405 L 597,405 L 598,406 L 599,406 L 600,407 L 602,407 L 603,408 L 612,408 L 613,407 L 615,407 L 616,406 L 617,406 L 618,405 L 619,405 L 620,404 L 621,404 L 623,402 L 624,402 L 625,401 L 626,401 L 628,399 L 629,399 L 630,398 L 631,398 L 633,396 L 634,396 L 635,395 L 636,395 L 638,393 L 639,393 L 640,392 L 641,392 L 642,391 L 643,391 L 645,389 L 646,389 L 647,388 L 648,388 L 650,386 L 651,386 L 652,385 L 653,385 L 655,383 L 656,383 L 657,382 L 658,382 L 659,381 L 660,381 L 662,379 L 663,379 L 664,378 L 665,378 L 667,376 L 668,376 L 669,375 L 670,375 L 671,374 L 672,374 L 674,372 L 675,372 L 676,371 L 677,371 L 679,369 L 680,369 L 681,368 L 682,368 L 683,367 L 684,367 L 686,365 L 687,365 L 688,364 L 689,364 L 691,362 L 692,362 L 693,361 L 694,361 L 696,359 L 697,359 L 698,358 L 699,358 L 700,357 L 701,357 L 703,355 L 704,355 L 705,354 L 706,354 L 707,353 L 708,353 L 710,351 L 711,351 L 712,350 L 713,350 L 714,349 L 715,349 L 717,347 L 718,347 L 719,346 L 720,346 L 722,344 L 723,344 L 724,343 L 725,343 L 726,342 L 727,342 L 729,340 L 730,340 L 731,339 L 732,339 L 734,337 L 735,337 L 740,332 L 740,331 L 741,330 L 741,329 L 742,328 L 742,317 L 741,316 L 741,314 L 740,313 L 740,312 L 738,310 L 738,309 L 737,308 L 736,308 L 733,305 L 732,305 L 731,304 L 730,304 L 728,302 L 727,302 L 726,301 L 725,301 L 724,300 L 723,300 L 721,298 L 720,298 L 719,297 L 718,297 L 717,296 L 716,296 L 715,295 L 714,295 L 712,293 L 711,293 L 710,292 L 709,292 L 708,291 L 707,291 L 705,289 L 704,289 L 703,288 L 702,288 L 701,287 L 700,287 L 699,286 L 698,286 L 696,284 L 695,284 L 694,283 L 693,283 L 692,282 L 691,282 L 690,281 L 689,281 L 687,279 L 686,279 L 685,278 L 684,278 L 683,277 L 682,277 L 680,275 L 679,275 L 678,274 L 677,274 L 676,273 L 675,273 L 674,272 L 673,272 L 671,270 L 670,270 L 669,269 L 668,269 L 667,268 L 666,268 L 665,267 L 664,267 L 662,265 L 661,265 L 660,264 L 659,264 L 658,263 L 657,263 L 656,262 L 655,262 L 654,261 L 653,261 L 651,259 L 650,259 L 649,258 L 648,258 L 647,257 L 646,257 L 644,255 L 643,255 L 642,254 L 641,254 L 640,253 L 639,253 L 638,252 L 637,252 L 635,250 L 634,250 L 633,249 L 632,249 L 631,248 L 630,248 L 629,247 L 628,247 L 626,245 L 625,245 L 624,244 L 623,244 L 622,243 L 621,243 L 620,242 L 619,242 L 617,240 L 616,240 L 615,239 L 612,239 L 611,238 Z" fill="white"/>
<path d="M 404,87 L 403,88 L 385,88 L 384,89 L 376,89 L 375,90 L 370,90 L 369,91 L 365,91 L 364,92 L 361,92 L 360,93 L 358,93 L 357,94 L 355,94 L 354,95 L 352,95 L 351,96 L 349,96 L 348,97 L 347,97 L 346,98 L 345,98 L 344,99 L 343,99 L 342,100 L 341,100 L 340,101 L 339,101 L 338,102 L 337,102 L 335,104 L 334,104 L 332,106 L 331,106 L 329,108 L 328,108 L 324,112 L 323,112 L 315,120 L 315,121 L 311,125 L 311,126 L 309,128 L 309,129 L 307,131 L 307,132 L 306,133 L 306,134 L 304,136 L 304,137 L 303,138 L 303,139 L 302,140 L 302,141 L 301,142 L 301,144 L 300,145 L 300,146 L 299,147 L 299,149 L 298,150 L 298,152 L 297,153 L 297,155 L 296,156 L 296,160 L 295,161 L 295,165 L 294,166 L 294,177 L 302,177 L 303,176 L 359,176 L 360,177 L 362,177 L 368,183 L 368,195 L 367,196 L 367,197 L 366,198 L 366,199 L 363,202 L 362,202 L 360,204 L 358,204 L 357,205 L 312,205 L 311,204 L 294,204 L 294,231 L 295,230 L 359,230 L 360,231 L 362,231 L 364,233 L 365,233 L 366,234 L 366,235 L 369,238 L 369,247 L 368,248 L 368,249 L 367,250 L 367,251 L 366,252 L 366,253 L 363,256 L 362,256 L 361,257 L 360,257 L 359,258 L 294,258 L 294,285 L 304,285 L 305,284 L 358,284 L 359,285 L 361,285 L 362,286 L 363,286 L 367,290 L 368,290 L 369,291 L 369,300 L 368,301 L 368,303 L 367,304 L 367,305 L 361,311 L 360,311 L 359,312 L 294,312 L 294,341 L 295,342 L 294,343 L 295,344 L 295,352 L 294,353 L 294,354 L 295,355 L 295,409 L 296,410 L 296,416 L 297,417 L 297,421 L 298,422 L 298,425 L 299,426 L 299,428 L 300,429 L 300,432 L 301,433 L 301,434 L 302,435 L 302,437 L 303,438 L 303,440 L 304,441 L 304,442 L 305,443 L 305,444 L 306,445 L 306,446 L 307,447 L 307,448 L 308,449 L 308,450 L 309,451 L 309,452 L 310,453 L 310,454 L 312,456 L 312,457 L 314,459 L 314,460 L 316,462 L 316,463 L 321,468 L 321,469 L 330,478 L 331,478 L 335,482 L 336,482 L 339,485 L 340,485 L 342,487 L 343,487 L 345,489 L 346,489 L 347,490 L 348,490 L 350,492 L 351,492 L 352,493 L 353,493 L 354,494 L 355,494 L 356,495 L 358,495 L 359,496 L 360,496 L 361,497 L 364,497 L 365,498 L 369,498 L 370,499 L 374,499 L 375,500 L 381,500 L 382,501 L 450,501 L 451,500 L 456,500 L 457,499 L 461,499 L 462,498 L 465,498 L 466,497 L 469,497 L 470,496 L 472,496 L 473,495 L 474,495 L 475,494 L 477,494 L 478,493 L 479,493 L 480,492 L 481,492 L 482,491 L 483,491 L 484,490 L 485,490 L 486,489 L 487,489 L 488,488 L 489,488 L 490,487 L 491,487 L 493,485 L 494,485 L 496,483 L 497,483 L 500,480 L 501,480 L 505,476 L 506,476 L 515,467 L 515,466 L 519,462 L 519,461 L 522,458 L 522,457 L 524,455 L 524,454 L 525,453 L 525,452 L 527,450 L 527,449 L 528,448 L 528,447 L 529,446 L 529,445 L 530,444 L 530,443 L 531,442 L 531,440 L 532,439 L 532,438 L 533,437 L 533,435 L 534,434 L 534,432 L 535,431 L 535,429 L 536,428 L 536,425 L 537,424 L 537,421 L 538,420 L 538,416 L 539,415 L 539,408 L 540,407 L 540,311 L 537,311 L 536,312 L 478,312 L 477,311 L 476,311 L 475,310 L 474,310 L 471,307 L 471,306 L 470,305 L 470,303 L 469,302 L 469,293 L 470,292 L 470,291 L 476,285 L 478,285 L 479,284 L 539,284 L 540,285 L 541,284 L 540,283 L 540,271 L 541,270 L 541,269 L 540,268 L 540,259 L 541,258 L 540,257 L 539,258 L 478,258 L 477,257 L 476,257 L 471,252 L 471,251 L 470,250 L 470,248 L 469,247 L 469,240 L 470,239 L 470,238 L 471,237 L 471,236 L 476,231 L 477,231 L 478,230 L 538,230 L 539,231 L 540,231 L 541,230 L 541,226 L 540,225 L 540,223 L 541,222 L 541,220 L 540,219 L 540,210 L 541,209 L 541,205 L 540,204 L 531,204 L 530,205 L 482,205 L 481,204 L 478,204 L 477,203 L 476,203 L 471,198 L 471,196 L 470,195 L 470,186 L 471,185 L 471,183 L 477,177 L 479,177 L 480,176 L 540,176 L 540,167 L 539,166 L 539,160 L 538,159 L 538,156 L 537,155 L 537,152 L 536,151 L 536,149 L 535,148 L 535,147 L 534,146 L 534,144 L 533,143 L 533,142 L 532,141 L 532,140 L 531,139 L 531,138 L 530,137 L 530,136 L 529,135 L 529,134 L 528,133 L 528,132 L 527,131 L 527,130 L 525,128 L 525,127 L 522,124 L 522,123 L 510,111 L 509,111 L 506,108 L 505,108 L 503,106 L 502,106 L 500,104 L 499,104 L 497,102 L 496,102 L 495,101 L 494,101 L 493,100 L 492,100 L 491,99 L 490,99 L 489,98 L 488,98 L 487,97 L 486,97 L 485,96 L 483,96 L 482,95 L 480,95 L 479,94 L 477,94 L 476,93 L 474,93 L 473,92 L 470,92 L 469,91 L 466,91 L 465,90 L 460,90 L 459,89 L 449,89 L 448,88 L 418,88 L 417,87 Z" fill="white"/>
</svg>